<svg xmlns="http://www.w3.org/2000/svg" xmlns:xlink="http://www.w3.org/1999/xlink" width="1080" zoomAndPan="magnify" viewBox="0 0 810 809.999993" height="1080" preserveAspectRatio="xMidYMid meet" version="1.0"><defs><filter x="0%" y="0%" width="100%" height="100%" id="54a5bcb5cb"><feColorMatrix values="0 0 0 0 1 0 0 0 0 1 0 0 0 0 1 0 0 0 1 0" color-interpolation-filters="sRGB"/></filter><g/><mask id="60cef32893"><g filter="url(#54a5bcb5cb)"><rect x="-81" width="972" fill="#000000" y="-80.999999" height="971.999992" fill-opacity="0.5"/></g></mask><clipPath id="f7afc34e74"><rect x="0" width="313" y="0" height="38"/></clipPath><clipPath id="6f2ec3b6df"><path d="M 0.195312 0.363281 L 153.042969 0.363281 L 153.042969 153.210938 L 0.195312 153.210938 Z M 0.195312 0.363281 " clip-rule="nonzero"/></clipPath><clipPath id="8a3336a872"><path d="M 76.621094 0.363281 C 34.414062 0.363281 0.195312 34.582031 0.195312 76.789062 C 0.195312 118.996094 34.414062 153.210938 76.621094 153.210938 C 118.828125 153.210938 153.042969 118.996094 153.042969 76.789062 C 153.042969 34.582031 118.828125 0.363281 76.621094 0.363281 Z M 76.621094 0.363281 " clip-rule="nonzero"/></clipPath><clipPath id="6681ce0742"><path d="M 0.195312 0.363281 L 153.042969 0.363281 L 153.042969 153.210938 L 0.195312 153.210938 Z M 0.195312 0.363281 " clip-rule="nonzero"/></clipPath><clipPath id="7e54b49711"><path d="M 76.621094 0.363281 C 34.414062 0.363281 0.195312 34.582031 0.195312 76.789062 C 0.195312 118.996094 34.414062 153.210938 76.621094 153.210938 C 118.828125 153.210938 153.042969 118.996094 153.042969 76.789062 C 153.042969 34.582031 118.828125 0.363281 76.621094 0.363281 Z M 76.621094 0.363281 " clip-rule="nonzero"/></clipPath><clipPath id="3f41de7e93"><rect x="0" width="154" y="0" height="154"/></clipPath><clipPath id="2aff385ae1"><path d="M 100.28125 25.65625 L 253.128906 25.65625 L 253.128906 178.5 L 100.28125 178.5 Z M 100.28125 25.65625 " clip-rule="nonzero"/></clipPath><clipPath id="da45fb718c"><path d="M 176.707031 25.65625 C 134.5 25.65625 100.28125 59.871094 100.28125 102.078125 C 100.28125 144.285156 134.5 178.5 176.707031 178.5 C 218.914062 178.5 253.128906 144.285156 253.128906 102.078125 C 253.128906 59.871094 218.914062 25.65625 176.707031 25.65625 Z M 176.707031 25.65625 " clip-rule="nonzero"/></clipPath><clipPath id="28430d49ad"><path d="M 0.28125 0.65625 L 153.128906 0.65625 L 153.128906 153.5 L 0.28125 153.5 Z M 0.28125 0.65625 " clip-rule="nonzero"/></clipPath><clipPath id="9776697d0f"><path d="M 76.707031 0.65625 C 34.5 0.65625 0.28125 34.871094 0.28125 77.078125 C 0.28125 119.285156 34.5 153.5 76.707031 153.5 C 118.914062 153.5 153.128906 119.285156 153.128906 77.078125 C 153.128906 34.871094 118.914062 0.65625 76.707031 0.65625 Z M 76.707031 0.65625 " clip-rule="nonzero"/></clipPath><clipPath id="7d9e173dcf"><rect x="0" width="154" y="0" height="154"/></clipPath><clipPath id="b69df2c887"><path d="M 14.246094 76.789062 L 167.09375 76.789062 L 167.09375 229.636719 L 14.246094 229.636719 Z M 14.246094 76.789062 " clip-rule="nonzero"/></clipPath><clipPath id="524717777b"><path d="M 90.671875 76.789062 C 48.460938 76.789062 14.246094 111.003906 14.246094 153.210938 C 14.246094 195.417969 48.460938 229.636719 90.671875 229.636719 C 132.878906 229.636719 167.09375 195.417969 167.09375 153.210938 C 167.09375 111.003906 132.878906 76.789062 90.671875 76.789062 Z M 90.671875 76.789062 " clip-rule="nonzero"/></clipPath><clipPath id="4061146c3f"><path d="M 0.246094 0.789062 L 153.09375 0.789062 L 153.09375 153.636719 L 0.246094 153.636719 Z M 0.246094 0.789062 " clip-rule="nonzero"/></clipPath><clipPath id="532b18d44a"><path d="M 76.671875 0.789062 C 34.460938 0.789062 0.246094 35.003906 0.246094 77.210938 C 0.246094 119.417969 34.460938 153.636719 76.671875 153.636719 C 118.878906 153.636719 153.09375 119.417969 153.09375 77.210938 C 153.09375 35.003906 118.878906 0.789062 76.671875 0.789062 Z M 76.671875 0.789062 " clip-rule="nonzero"/></clipPath><clipPath id="80da0d5ed4"><rect x="0" width="154" y="0" height="154"/></clipPath><clipPath id="89fa601598"><rect x="0" width="254" y="0" height="230"/></clipPath></defs><g fill="#d2e0b4" fill-opacity="1"><g transform="translate(383.545091, 406.237471)"><g><path d="M 9.25 -35.609375 L 38.8125 -35.609375 L 38.8125 -30.3125 L 14.75 -30.3125 L 14.75 -20.90625 L 36.015625 -20.90625 L 36.015625 -15.609375 L 14.75 -15.609375 L 14.75 -5.296875 L 38.8125 -5.296875 L 38.8125 0 L 9.25 0 Z M 9.25 -35.609375 "/></g></g></g><g fill="#051d40" fill-opacity="1"><g transform="translate(430.478682, 406.237471)"><g/></g></g><g fill="#051d40" fill-opacity="1"><g transform="translate(455.139818, 406.237471)"><g/></g></g><g fill="#051d40" fill-opacity="1"><g transform="translate(479.800954, 406.237471)"><g/></g></g><g fill="#92b09c" fill-opacity="1"><g transform="translate(504.470866, 406.237471)"><g><path d="M 14.640625 -35.609375 L 29.90625 -16.734375 L 45.15625 -35.609375 L 50.546875 -35.609375 L 50.546875 0 L 45.0625 0 L 45.0625 -15.109375 C 45.0625 -17.304688 45.101562 -19.394531 45.1875 -21.375 C 45.269531 -23.363281 45.414062 -25.34375 45.625 -27.3125 L 31.578125 -10.21875 L 28.234375 -10.21875 L 14.1875 -27.3125 C 14.394531 -25.34375 14.539062 -23.363281 14.625 -21.375 C 14.707031 -19.394531 14.75 -17.304688 14.75 -15.109375 L 14.75 0 L 9.25 0 L 9.25 -35.609375 Z M 14.640625 -35.609375 "/></g></g></g><g fill="#051d40" fill-opacity="1"><g transform="translate(564.271644, 406.237471)"><g/></g></g><g fill="#051d40" fill-opacity="1"><g transform="translate(588.93278, 406.237471)"><g/></g></g><g fill="#051d40" fill-opacity="1"><g transform="translate(613.593916, 406.237471)"><g/></g></g><g fill="#90a38b" fill-opacity="1"><g transform="translate(638.263828, 406.237471)"><g><path d="M 39.71875 0 L 35.65625 -8.34375 L 14.546875 -8.34375 L 10.484375 0 L 4.671875 0 L 22.078125 -35.609375 L 28.484375 -35.609375 L 45.78125 0 Z M 22.328125 -24.3125 L 17.140625 -13.625 L 33.0625 -13.625 L 27.765625 -24.515625 C 27.296875 -25.492188 26.835938 -26.429688 26.390625 -27.328125 C 25.953125 -28.234375 25.515625 -29.210938 25.078125 -30.265625 C 24.628906 -29.179688 24.175781 -28.160156 23.71875 -27.203125 C 23.269531 -26.253906 22.804688 -25.289062 22.328125 -24.3125 Z M 22.328125 -24.3125 "/></g></g></g><g mask="url(#60cef32893)"><g transform="matrix(1, 0, 0, 1, 383, 416)"><g clip-path="url(#f7afc34e74)"><g fill="#ed904c" fill-opacity="1"><g transform="translate(0.545092, 29.832869)"><g><path d="M 3.609375 -6.125 C 4.398438 -4.988281 5.222656 -4.101562 6.078125 -3.46875 C 6.941406 -2.84375 8.066406 -2.53125 9.453125 -2.53125 C 10.109375 -2.53125 10.734375 -2.632812 11.328125 -2.84375 C 11.929688 -3.0625 12.425781 -3.375 12.8125 -3.78125 C 13.195312 -4.1875 13.390625 -4.671875 13.390625 -5.234375 C 13.390625 -6.203125 12.976562 -6.957031 12.15625 -7.5 C 11.332031 -8.039062 10.175781 -8.457031 8.6875 -8.75 C 6.789062 -9.132812 5.28125 -9.804688 4.15625 -10.765625 C 3.03125 -11.722656 2.46875 -13.113281 2.46875 -14.9375 C 2.46875 -16.101562 2.789062 -17.109375 3.4375 -17.953125 C 4.09375 -18.804688 4.953125 -19.46875 6.015625 -19.9375 C 7.078125 -20.40625 8.226562 -20.640625 9.46875 -20.640625 C 11.082031 -20.640625 12.46875 -20.328125 13.625 -19.703125 C 14.789062 -19.085938 15.703125 -18.207031 16.359375 -17.0625 L 14.15625 -14.875 C 13.632812 -15.75 12.972656 -16.457031 12.171875 -17 C 11.378906 -17.539062 10.453125 -17.8125 9.390625 -17.8125 C 8.316406 -17.8125 7.414062 -17.5625 6.6875 -17.0625 C 5.96875 -16.570312 5.609375 -15.894531 5.609375 -15.03125 C 5.609375 -14.039062 5.988281 -13.316406 6.75 -12.859375 C 7.519531 -12.398438 8.535156 -12.035156 9.796875 -11.765625 C 10.941406 -11.535156 12.023438 -11.175781 13.046875 -10.6875 C 14.078125 -10.207031 14.914062 -9.582031 15.5625 -8.8125 C 16.207031 -8.050781 16.53125 -7.128906 16.53125 -6.046875 C 16.53125 -4.109375 15.867188 -2.566406 14.546875 -1.421875 C 13.234375 -0.273438 11.425781 0.296875 9.125 0.296875 C 7.550781 0.296875 6.117188 -0.0078125 4.828125 -0.625 C 3.546875 -1.25 2.421875 -2.257812 1.453125 -3.65625 Z M 3.609375 -6.125 "/></g></g></g><g fill="#ed904c" fill-opacity="1"><g transform="translate(21.578942, 29.832869)"><g><path d="M 21.328125 -10.171875 C 21.328125 -8.703125 21.082031 -7.332031 20.59375 -6.0625 C 20.113281 -4.789062 19.421875 -3.679688 18.515625 -2.734375 C 17.617188 -1.785156 16.566406 -1.039062 15.359375 -0.5 C 14.148438 0.03125 12.816406 0.296875 11.359375 0.296875 C 9.910156 0.296875 8.570312 0.03125 7.34375 -0.5 C 6.125 -1.039062 5.066406 -1.785156 4.171875 -2.734375 C 3.285156 -3.679688 2.597656 -4.789062 2.109375 -6.0625 C 1.628906 -7.332031 1.390625 -8.703125 1.390625 -10.171875 C 1.390625 -11.640625 1.628906 -13.007812 2.109375 -14.28125 C 2.597656 -15.550781 3.285156 -16.660156 4.171875 -17.609375 C 5.066406 -18.554688 6.125 -19.296875 7.34375 -19.828125 C 8.570312 -20.367188 9.910156 -20.640625 11.359375 -20.640625 C 12.816406 -20.640625 14.148438 -20.367188 15.359375 -19.828125 C 16.566406 -19.296875 17.617188 -18.554688 18.515625 -17.609375 C 19.421875 -16.660156 20.113281 -15.550781 20.59375 -14.28125 C 21.082031 -13.007812 21.328125 -11.640625 21.328125 -10.171875 Z M 18.140625 -10.171875 C 18.140625 -11.585938 17.847656 -12.851562 17.265625 -13.96875 C 16.679688 -15.082031 15.878906 -15.960938 14.859375 -16.609375 C 13.847656 -17.253906 12.679688 -17.578125 11.359375 -17.578125 C 10.023438 -17.578125 8.847656 -17.253906 7.828125 -16.609375 C 6.816406 -15.960938 6.023438 -15.082031 5.453125 -13.96875 C 4.878906 -12.851562 4.59375 -11.585938 4.59375 -10.171875 C 4.59375 -8.753906 4.878906 -7.488281 5.453125 -6.375 C 6.023438 -5.257812 6.816406 -4.378906 7.828125 -3.734375 C 8.847656 -3.085938 10.023438 -2.765625 11.359375 -2.765625 C 12.679688 -2.765625 13.847656 -3.085938 14.859375 -3.734375 C 15.878906 -4.378906 16.679688 -5.265625 17.265625 -6.390625 C 17.847656 -7.515625 18.140625 -8.773438 18.140625 -10.171875 Z M 18.140625 -10.171875 "/></g></g></g><g fill="#ed904c" fill-opacity="1"><g transform="translate(47.202823, 29.832869)"><g><path d="M 18.3125 -2.5 C 17.90625 -2.03125 17.335938 -1.582031 16.609375 -1.15625 C 15.878906 -0.726562 15.046875 -0.378906 14.109375 -0.109375 C 13.171875 0.160156 12.171875 0.296875 11.109375 0.296875 C 9.285156 0.296875 7.640625 -0.132812 6.171875 -1 C 4.710938 -1.863281 3.550781 -3.078125 2.6875 -4.640625 C 1.820312 -6.210938 1.390625 -8.054688 1.390625 -10.171875 C 1.390625 -11.660156 1.648438 -13.035156 2.171875 -14.296875 C 2.703125 -15.554688 3.429688 -16.648438 4.359375 -17.578125 C 5.285156 -18.515625 6.347656 -19.238281 7.546875 -19.75 C 8.753906 -20.257812 10.023438 -20.515625 11.359375 -20.515625 C 12.460938 -20.515625 13.492188 -20.34375 14.453125 -20 C 15.410156 -19.664062 16.253906 -19.234375 16.984375 -18.703125 C 17.710938 -18.171875 18.28125 -17.601562 18.6875 -17 L 16.59375 -14.828125 C 15.875 -15.554688 15.078125 -16.160156 14.203125 -16.640625 C 13.335938 -17.128906 12.390625 -17.375 11.359375 -17.375 C 10.203125 -17.375 9.101562 -17.082031 8.0625 -16.5 C 7.03125 -15.925781 6.191406 -15.097656 5.546875 -14.015625 C 4.910156 -12.941406 4.59375 -11.660156 4.59375 -10.171875 C 4.59375 -8.546875 4.914062 -7.1875 5.5625 -6.09375 C 6.21875 -5.007812 7.082031 -4.203125 8.15625 -3.671875 C 9.226562 -3.140625 10.382812 -2.875 11.625 -2.875 C 12.769531 -2.875 13.773438 -3.101562 14.640625 -3.5625 C 15.515625 -4.019531 16.210938 -4.519531 16.734375 -5.0625 Z M 18.3125 -2.5 "/></g></g></g><g fill="#ed904c" fill-opacity="1"><g transform="translate(69.834474, 29.832869)"><g><path d="M 11.796875 0 L 2.09375 0 L 2.09375 -2.90625 L 5.375 -2.90625 L 5.375 -17.4375 L 2.09375 -17.4375 L 2.09375 -20.34375 L 11.796875 -20.34375 L 11.796875 -17.4375 L 8.515625 -17.4375 L 8.515625 -2.90625 L 11.796875 -2.90625 Z M 11.796875 0 "/></g></g></g><g fill="#ed904c" fill-opacity="1"><g transform="translate(86.626904, 29.832869)"><g><path d="M 16.28125 0 L 14.359375 -5.0625 L 5.84375 -5.0625 L 3.921875 0 L 0.734375 0 L 8.609375 -20.34375 L 11.796875 -20.34375 L 19.625 0 Z M 8.546875 -12.140625 L 7 -8.078125 L 13.21875 -8.078125 L 11.625 -12.265625 C 11.375 -12.941406 11.117188 -13.671875 10.859375 -14.453125 C 10.609375 -15.242188 10.359375 -16.035156 10.109375 -16.828125 C 9.835938 -16.015625 9.570312 -15.203125 9.3125 -14.390625 C 9.050781 -13.578125 8.796875 -12.828125 8.546875 -12.140625 Z M 8.546875 -12.140625 "/></g></g></g><g fill="#ed904c" fill-opacity="1"><g transform="translate(109.868618, 29.832869)"><g><path d="M 15.515625 -3.015625 L 15.515625 0 L 2.84375 0 L 2.84375 -20.34375 L 5.984375 -20.34375 L 5.984375 -3.015625 Z M 15.515625 -3.015625 "/></g></g></g><g fill="#ed904c" fill-opacity="1"><g transform="translate(130.176203, 29.832869)"><g/></g></g><g fill="#ed904c" fill-opacity="1"><g transform="translate(141.21657, 29.832869)"><g><path d="M 17.0625 -20.34375 L 20.203125 -20.34375 L 20.203125 0 L 17.328125 0 L 5.5 -15.515625 C 5.613281 -14.335938 5.722656 -13.160156 5.828125 -11.984375 C 5.929688 -10.816406 5.984375 -9.640625 5.984375 -8.453125 L 5.984375 0 L 2.84375 0 L 2.84375 -20.34375 L 5.671875 -20.34375 L 17.5 -4.5 C 17.320312 -5.914062 17.203125 -7.441406 17.140625 -9.078125 C 17.085938 -10.710938 17.0625 -12.238281 17.0625 -13.65625 Z M 17.0625 -20.34375 "/></g></g></g><g fill="#ed904c" fill-opacity="1"><g transform="translate(167.160016, 29.832869)"><g><path d="M 2.84375 -20.34375 L 15.671875 -20.34375 L 15.671875 -17.328125 L 5.984375 -17.328125 L 5.984375 -11.9375 L 14.0625 -11.9375 L 14.0625 -8.921875 L 5.984375 -8.921875 L 5.984375 -3.015625 L 15.671875 -3.015625 L 15.671875 0 L 2.84375 0 Z M 2.84375 -20.34375 "/></g></g></g><g fill="#ed904c" fill-opacity="1"><g transform="translate(187.903358, 29.832869)"><g><path d="M 6.71875 0 L 6.71875 -17.328125 L 1.015625 -17.328125 L 1.015625 -20.34375 L 15.71875 -20.34375 L 15.71875 -17.328125 L 9.859375 -17.328125 L 9.859375 0 Z M 6.71875 0 "/></g></g></g><g fill="#ed904c" fill-opacity="1"><g transform="translate(207.542769, 29.832869)"><g><path d="M 28.25 -20.34375 L 21.765625 0 L 19.59375 0 L 14.359375 -12.359375 L 9.296875 0 L 7.171875 0 L 0.703125 -20.34375 L 4.046875 -20.34375 L 7.96875 -7.609375 C 8.101562 -7.148438 8.222656 -6.707031 8.328125 -6.28125 C 8.429688 -5.851562 8.523438 -5.445312 8.609375 -5.0625 C 8.703125 -5.445312 8.816406 -5.851562 8.953125 -6.28125 C 9.085938 -6.707031 9.253906 -7.160156 9.453125 -7.640625 L 13.109375 -16.828125 L 15.921875 -16.828125 L 19.46875 -7.640625 C 19.6875 -7.117188 19.863281 -6.648438 20 -6.234375 C 20.132812 -5.816406 20.25 -5.4375 20.34375 -5.09375 C 20.40625 -5.4375 20.488281 -5.820312 20.59375 -6.25 C 20.695312 -6.675781 20.835938 -7.160156 21.015625 -7.703125 L 24.875 -20.34375 Z M 28.25 -20.34375 "/></g></g></g><g fill="#ed904c" fill-opacity="1"><g transform="translate(239.383527, 29.832869)"><g><path d="M 21.328125 -10.171875 C 21.328125 -8.703125 21.082031 -7.332031 20.59375 -6.0625 C 20.113281 -4.789062 19.421875 -3.679688 18.515625 -2.734375 C 17.617188 -1.785156 16.566406 -1.039062 15.359375 -0.5 C 14.148438 0.03125 12.816406 0.296875 11.359375 0.296875 C 9.910156 0.296875 8.570312 0.03125 7.34375 -0.5 C 6.125 -1.039062 5.066406 -1.785156 4.171875 -2.734375 C 3.285156 -3.679688 2.597656 -4.789062 2.109375 -6.0625 C 1.628906 -7.332031 1.390625 -8.703125 1.390625 -10.171875 C 1.390625 -11.640625 1.628906 -13.007812 2.109375 -14.28125 C 2.597656 -15.550781 3.285156 -16.660156 4.171875 -17.609375 C 5.066406 -18.554688 6.125 -19.296875 7.34375 -19.828125 C 8.570312 -20.367188 9.910156 -20.640625 11.359375 -20.640625 C 12.816406 -20.640625 14.148438 -20.367188 15.359375 -19.828125 C 16.566406 -19.296875 17.617188 -18.554688 18.515625 -17.609375 C 19.421875 -16.660156 20.113281 -15.550781 20.59375 -14.28125 C 21.082031 -13.007812 21.328125 -11.640625 21.328125 -10.171875 Z M 18.140625 -10.171875 C 18.140625 -11.585938 17.847656 -12.851562 17.265625 -13.96875 C 16.679688 -15.082031 15.878906 -15.960938 14.859375 -16.609375 C 13.847656 -17.253906 12.679688 -17.578125 11.359375 -17.578125 C 10.023438 -17.578125 8.847656 -17.253906 7.828125 -16.609375 C 6.816406 -15.960938 6.023438 -15.082031 5.453125 -13.96875 C 4.878906 -12.851562 4.59375 -11.585938 4.59375 -10.171875 C 4.59375 -8.753906 4.878906 -7.488281 5.453125 -6.375 C 6.023438 -5.257812 6.816406 -4.378906 7.828125 -3.734375 C 8.847656 -3.085938 10.023438 -2.765625 11.359375 -2.765625 C 12.679688 -2.765625 13.847656 -3.085938 14.859375 -3.734375 C 15.878906 -4.378906 16.679688 -5.265625 17.265625 -6.390625 C 17.847656 -7.515625 18.140625 -8.773438 18.140625 -10.171875 Z M 18.140625 -10.171875 "/></g></g></g><g fill="#ed904c" fill-opacity="1"><g transform="translate(265.00742, 29.832869)"><g><path d="M 17.9375 -13.859375 C 17.9375 -12.640625 17.570312 -11.503906 16.84375 -10.453125 C 16.113281 -9.410156 15.171875 -8.640625 14.015625 -8.140625 L 18.75 0.03125 L 14.9375 0 L 10.640625 -7.640625 L 5.984375 -7.640625 L 5.984375 0 L 2.84375 0 L 2.84375 -20.34375 L 11.515625 -20.34375 C 12.578125 -20.34375 13.597656 -20.082031 14.578125 -19.5625 C 15.554688 -19.039062 16.359375 -18.296875 16.984375 -17.328125 C 17.617188 -16.359375 17.9375 -15.203125 17.9375 -13.859375 Z M 10.984375 -17.328125 L 5.984375 -17.328125 L 5.984375 -10.671875 L 11.796875 -10.671875 C 12.722656 -10.671875 13.441406 -11 13.953125 -11.65625 C 14.472656 -12.3125 14.734375 -13.054688 14.734375 -13.890625 C 14.734375 -14.953125 14.363281 -15.789062 13.625 -16.40625 C 12.894531 -17.019531 12.015625 -17.328125 10.984375 -17.328125 Z M 10.984375 -17.328125 "/></g></g></g><g fill="#ed904c" fill-opacity="1"><g transform="translate(288.103885, 29.832869)"><g><path d="M 5.984375 0 L 2.84375 0 L 2.84375 -20.34375 L 5.984375 -20.34375 L 5.984375 -10.375 L 15.953125 -20.34375 L 20.078125 -20.34375 L 11.3125 -11.828125 L 20.25 0 L 16.328125 0 L 9.09375 -9.671875 L 5.984375 -6.65625 Z M 5.984375 0 "/></g></g></g></g></g></g><g transform="matrix(1, 0, 0, 1, 110, 290)"><g clip-path="url(#89fa601598)"><g clip-path="url(#6f2ec3b6df)"><g clip-path="url(#8a3336a872)"><g transform="matrix(1, 0, 0, 1, 0.000000000000014211, 0)"><g clip-path="url(#3f41de7e93)"><g clip-path="url(#6681ce0742)"><g clip-path="url(#7e54b49711)"><path fill="#d2e0b4" d="M 0.195312 0.363281 L 153.042969 0.363281 L 153.042969 153.210938 L 0.195312 153.210938 Z M 0.195312 0.363281 " fill-opacity="1" fill-rule="nonzero"/></g></g></g></g></g></g><g clip-path="url(#2aff385ae1)"><g clip-path="url(#da45fb718c)"><g transform="matrix(1, 0, 0, 1, 100, 25)"><g clip-path="url(#7d9e173dcf)"><g clip-path="url(#28430d49ad)"><g clip-path="url(#9776697d0f)"><path fill="#92b09c" d="M 0.28125 0.65625 L 153.128906 0.65625 L 153.128906 153.5 L 0.28125 153.5 Z M 0.28125 0.65625 " fill-opacity="1" fill-rule="nonzero"/></g></g></g></g></g></g><g clip-path="url(#b69df2c887)"><g clip-path="url(#524717777b)"><g transform="matrix(1, 0, 0, 1, 14, 76)"><g clip-path="url(#80da0d5ed4)"><g clip-path="url(#4061146c3f)"><g clip-path="url(#532b18d44a)"><path fill="#90a38b" d="M 0.246094 0.789062 L 153.09375 0.789062 L 153.09375 153.636719 L 0.246094 153.636719 Z M 0.246094 0.789062 " fill-opacity="1" fill-rule="nonzero"/></g></g></g></g></g></g></g></g></svg>