<svg xmlns="http://www.w3.org/2000/svg" xmlns:xlink="http://www.w3.org/1999/xlink" width="1080" zoomAndPan="magnify" viewBox="0 0 810 809.999993" height="1080" preserveAspectRatio="xMidYMid meet" version="1.0"><defs><clipPath id="5a6cdbfaad"><path d="M 10.195312 47.132812 L 487.355469 47.132812 L 487.355469 524.289062 L 10.195312 524.289062 Z M 10.195312 47.132812 " clip-rule="nonzero"/></clipPath><clipPath id="e77af0c3c2"><path d="M 248.773438 47.132812 C 117.011719 47.132812 10.195312 153.945312 10.195312 285.710938 C 10.195312 417.472656 117.011719 524.289062 248.773438 524.289062 C 380.539062 524.289062 487.355469 417.472656 487.355469 285.710938 C 487.355469 153.945312 380.539062 47.132812 248.773438 47.132812 Z M 248.773438 47.132812 " clip-rule="nonzero"/></clipPath><clipPath id="cd4e058621"><path d="M 0.195312 0.132812 L 477.355469 0.132812 L 477.355469 477.289062 L 0.195312 477.289062 Z M 0.195312 0.132812 " clip-rule="nonzero"/></clipPath><clipPath id="a378fd7190"><path d="M 238.773438 0.132812 C 107.011719 0.132812 0.195312 106.945312 0.195312 238.710938 C 0.195312 370.472656 107.011719 477.289062 238.773438 477.289062 C 370.539062 477.289062 477.355469 370.472656 477.355469 238.710938 C 477.355469 106.945312 370.539062 0.132812 238.773438 0.132812 Z M 238.773438 0.132812 " clip-rule="nonzero"/></clipPath><clipPath id="1299762a15"><rect x="0" width="478" y="0" height="478"/></clipPath><clipPath id="d71c4a6dea"><path d="M 322.644531 126.082031 L 799.804688 126.082031 L 799.804688 603.238281 L 322.644531 603.238281 Z M 322.644531 126.082031 " clip-rule="nonzero"/></clipPath><clipPath id="5dfe42ca9b"><path d="M 561.226562 126.082031 C 429.460938 126.082031 322.644531 232.894531 322.644531 364.660156 C 322.644531 496.421875 429.460938 603.238281 561.226562 603.238281 C 692.988281 603.238281 799.804688 496.421875 799.804688 364.660156 C 799.804688 232.894531 692.988281 126.082031 561.226562 126.082031 Z M 561.226562 126.082031 " clip-rule="nonzero"/></clipPath><clipPath id="1ca2e5cbc1"><path d="M 0.644531 0.0820312 L 477.804688 0.0820312 L 477.804688 477.238281 L 0.644531 477.238281 Z M 0.644531 0.0820312 " clip-rule="nonzero"/></clipPath><clipPath id="0d961b1d4c"><path d="M 239.226562 0.0820312 C 107.460938 0.0820312 0.644531 106.894531 0.644531 238.660156 C 0.644531 370.421875 107.460938 477.238281 239.226562 477.238281 C 370.988281 477.238281 477.804688 370.421875 477.804688 238.660156 C 477.804688 106.894531 370.988281 0.0820312 239.226562 0.0820312 Z M 239.226562 0.0820312 " clip-rule="nonzero"/></clipPath><clipPath id="7cab866112"><rect x="0" width="478" y="0" height="478"/></clipPath><clipPath id="305beb486c"><path d="M 54.054688 285.710938 L 531.214844 285.710938 L 531.214844 762.867188 L 54.054688 762.867188 Z M 54.054688 285.710938 " clip-rule="nonzero"/></clipPath><clipPath id="41110f2885"><path d="M 292.636719 285.710938 C 160.871094 285.710938 54.054688 392.527344 54.054688 524.289062 C 54.054688 656.054688 160.871094 762.867188 292.636719 762.867188 C 424.398438 762.867188 531.214844 656.054688 531.214844 524.289062 C 531.214844 392.527344 424.398438 285.710938 292.636719 285.710938 Z M 292.636719 285.710938 " clip-rule="nonzero"/></clipPath><clipPath id="44488170b2"><path d="M 0.0546875 0.710938 L 477.214844 0.710938 L 477.214844 477.867188 L 0.0546875 477.867188 Z M 0.0546875 0.710938 " clip-rule="nonzero"/></clipPath><clipPath id="e79e7a14a6"><path d="M 238.636719 0.710938 C 106.871094 0.710938 0.0546875 107.527344 0.0546875 239.289062 C 0.0546875 371.054688 106.871094 477.867188 238.636719 477.867188 C 370.398438 477.867188 477.214844 371.054688 477.214844 239.289062 C 477.214844 107.527344 370.398438 0.710938 238.636719 0.710938 Z M 238.636719 0.710938 " clip-rule="nonzero"/></clipPath><clipPath id="9853dec901"><rect x="0" width="478" y="0" height="478"/></clipPath></defs><g clip-path="url(#5a6cdbfaad)"><g clip-path="url(#e77af0c3c2)"><g transform="matrix(1, 0, 0, 1, 10, 47)"><g clip-path="url(#1299762a15)"><g clip-path="url(#cd4e058621)"><g clip-path="url(#a378fd7190)"><path fill="#d2e0b4" d="M 0.195312 0.132812 L 477.355469 0.132812 L 477.355469 477.289062 L 0.195312 477.289062 Z M 0.195312 0.132812 " fill-opacity="1" fill-rule="nonzero"/></g></g></g></g></g></g><g clip-path="url(#d71c4a6dea)"><g clip-path="url(#5dfe42ca9b)"><g transform="matrix(1, 0, 0, 1, 322, 126)"><g clip-path="url(#7cab866112)"><g clip-path="url(#1ca2e5cbc1)"><g clip-path="url(#0d961b1d4c)"><path fill="#92b09c" d="M 0.644531 0.0820312 L 477.804688 0.0820312 L 477.804688 477.238281 L 0.644531 477.238281 Z M 0.644531 0.0820312 " fill-opacity="1" fill-rule="nonzero"/></g></g></g></g></g></g><g clip-path="url(#305beb486c)"><g clip-path="url(#41110f2885)"><g transform="matrix(1, 0, 0, 1, 54, 285)"><g clip-path="url(#9853dec901)"><g clip-path="url(#44488170b2)"><g clip-path="url(#e79e7a14a6)"><path fill="#90a38b" d="M 0.0546875 0.710938 L 477.214844 0.710938 L 477.214844 477.867188 L 0.0546875 477.867188 Z M 0.0546875 0.710938 " fill-opacity="1" fill-rule="nonzero"/></g></g></g></g></g></g></svg>