<svg xmlns="http://www.w3.org/2000/svg" xmlns:xlink="http://www.w3.org/1999/xlink" width="1500" zoomAndPan="magnify" viewBox="0 0 1125 1124.99995" height="1500" preserveAspectRatio="xMidYMid meet" version="1.0"><defs><clipPath id="4af9f01963"><path d="M 196.875 393.75 L 534.375 393.75 L 534.375 731.25 L 196.875 731.25 Z M 196.875 393.75 " clip-rule="nonzero"/></clipPath><clipPath id="ca1a47f6b8"><path d="M 365.625 393.75 C 272.425781 393.75 196.875 469.300781 196.875 562.5 C 196.875 655.699219 272.425781 731.25 365.625 731.25 C 458.824219 731.25 534.375 655.699219 534.375 562.5 C 534.375 469.300781 458.824219 393.75 365.625 393.75 Z M 365.625 393.75 " clip-rule="nonzero"/></clipPath><clipPath id="afedc79802"><path d="M 0.875 0.75 L 338.375 0.75 L 338.375 338.25 L 0.875 338.25 Z M 0.875 0.75 " clip-rule="nonzero"/></clipPath><clipPath id="3183913270"><path d="M 169.625 0.75 C 76.425781 0.75 0.875 76.300781 0.875 169.5 C 0.875 262.699219 76.425781 338.25 169.625 338.25 C 262.824219 338.25 338.375 262.699219 338.375 169.5 C 338.375 76.300781 262.824219 0.75 169.625 0.75 Z M 169.625 0.75 " clip-rule="nonzero"/></clipPath><clipPath id="c8604b35b1"><rect x="0" width="339" y="0" height="339"/></clipPath><clipPath id="90efade2f7"><path d="M 11.40625 0.742188 L 109.84375 0.742188 L 109.84375 99.179688 L 11.40625 99.179688 Z M 11.40625 0.742188 " clip-rule="nonzero"/></clipPath><clipPath id="568ffe5ded"><path d="M 60.625 0.742188 C 33.441406 0.742188 11.40625 22.777344 11.40625 49.960938 C 11.40625 77.144531 33.441406 99.179688 60.625 99.179688 C 87.808594 99.179688 109.84375 77.144531 109.84375 49.960938 C 109.84375 22.777344 87.808594 0.742188 60.625 0.742188 Z M 60.625 0.742188 " clip-rule="nonzero"/></clipPath><clipPath id="bcaf177787"><path d="M 0.40625 0.742188 L 98.84375 0.742188 L 98.84375 99.179688 L 0.40625 99.179688 Z M 0.40625 0.742188 " clip-rule="nonzero"/></clipPath><clipPath id="360eb03e8b"><path d="M 49.625 0.742188 C 22.441406 0.742188 0.40625 22.777344 0.40625 49.960938 C 0.40625 77.144531 22.441406 99.179688 49.625 99.179688 C 76.808594 99.179688 98.84375 77.144531 98.84375 49.960938 C 98.84375 22.777344 76.808594 0.742188 49.625 0.742188 Z M 49.625 0.742188 " clip-rule="nonzero"/></clipPath><clipPath id="d8bf248058"><rect x="0" width="99" y="0" height="100"/></clipPath><clipPath id="4d9ba009c4"><path d="M 0.367188 106.324219 L 120.882812 106.324219 L 120.882812 247.554688 L 0.367188 247.554688 Z M 0.367188 106.324219 " clip-rule="nonzero"/></clipPath><clipPath id="346c3ab22b"><path d="M 40.5625 109.804688 C 46.71875 107.703125 53.761719 106.324219 60.65625 106.324219 C 67.550781 106.324219 74.1875 107.503906 80.300781 109.605469 C 80.429688 109.671875 80.558594 109.671875 80.6875 109.738281 C 103.648438 118.144531 120.558594 140.335938 120.882812 166.113281 L 120.882812 247.507812 L 0.367188 247.507812 L 0.367188 166.171875 C 0.691406 140.203125 17.34375 118.011719 40.5625 109.804688 Z M 40.5625 109.804688 " clip-rule="nonzero"/></clipPath><clipPath id="c4a27f4b53"><path d="M 0.367188 0.324219 L 120.882812 0.324219 L 120.882812 141.554688 L 0.367188 141.554688 Z M 0.367188 0.324219 " clip-rule="nonzero"/></clipPath><clipPath id="0951c90122"><path d="M 40.5625 3.804688 C 46.71875 1.703125 53.761719 0.324219 60.65625 0.324219 C 67.550781 0.324219 74.1875 1.503906 80.300781 3.605469 C 80.429688 3.671875 80.558594 3.671875 80.6875 3.738281 C 103.648438 12.144531 120.558594 34.335938 120.882812 60.113281 L 120.882812 141.507812 L 0.367188 141.507812 L 0.367188 60.171875 C 0.691406 34.203125 17.34375 12.011719 40.5625 3.804688 Z M 40.5625 3.804688 " clip-rule="nonzero"/></clipPath><clipPath id="e212cec1cd"><rect x="0" width="121" y="0" height="142"/></clipPath><clipPath id="4c844b72b8"><path d="M 12.289062 108.445312 L 110.890625 108.445312 L 110.890625 158.628906 L 12.289062 158.628906 Z M 12.289062 108.445312 " clip-rule="nonzero"/></clipPath><clipPath id="9a8cff1979"><path d="M 110.726562 158.628906 C 110.726562 131.296875 88.316406 108.445312 61.507812 108.445312 C 34.699219 108.445312 12.289062 131.296875 12.289062 158.628906 Z M 110.726562 158.628906 " clip-rule="nonzero"/></clipPath><clipPath id="efe3c2712d"><path d="M 0.289062 0.445312 L 98.890625 0.445312 L 98.890625 50.628906 L 0.289062 50.628906 Z M 0.289062 0.445312 " clip-rule="nonzero"/></clipPath><clipPath id="9ded9cb669"><path d="M 98.726562 50.628906 C 98.726562 23.296875 76.316406 0.445312 49.507812 0.445312 C 22.699219 0.445312 0.289062 23.296875 0.289062 50.628906 Z M 98.726562 50.628906 " clip-rule="nonzero"/></clipPath><clipPath id="9e29622b41"><rect x="0" width="99" y="0" height="51"/></clipPath><clipPath id="58c1000672"><rect x="0" width="121" y="0" height="248"/></clipPath><clipPath id="f4e6aba7e7"><path d="M 305.332031 712.5 L 425.871094 712.5 L 425.871094 728.070312 L 305.332031 728.070312 Z M 305.332031 712.5 " clip-rule="nonzero"/></clipPath><clipPath id="6bbee74581"><path d="M 305.355469 712.5 C 305.355469 720.980469 332.792969 728.070312 365.613281 728.070312 C 398.433594 728.070312 425.871094 720.980469 425.871094 712.5 Z M 305.355469 712.5 " clip-rule="nonzero"/></clipPath><clipPath id="4dc2852315"><path d="M 0.332031 0.5 L 120.871094 0.5 L 120.871094 16.070312 L 0.332031 16.070312 Z M 0.332031 0.5 " clip-rule="nonzero"/></clipPath><clipPath id="a3a9aec9cd"><path d="M 0.355469 0.5 C 0.355469 8.980469 27.792969 16.070312 60.613281 16.070312 C 93.433594 16.070312 120.871094 8.980469 120.871094 0.5 Z M 0.355469 0.5 " clip-rule="nonzero"/></clipPath><clipPath id="a2969359fd"><rect x="0" width="121" y="0" height="17"/></clipPath><clipPath id="ca0794cb05"><path d="M 384.304688 393.75 L 721.804688 393.75 L 721.804688 731.25 L 384.304688 731.25 Z M 384.304688 393.75 " clip-rule="nonzero"/></clipPath><clipPath id="2faf9c4cad"><path d="M 553.054688 393.75 C 459.855469 393.75 384.304688 469.300781 384.304688 562.5 C 384.304688 655.699219 459.855469 731.25 553.054688 731.25 C 646.25 731.25 721.804688 655.699219 721.804688 562.5 C 721.804688 469.300781 646.25 393.75 553.054688 393.75 Z M 553.054688 393.75 " clip-rule="nonzero"/></clipPath><clipPath id="68475d1b72"><path d="M 0.304688 0.75 L 337.804688 0.75 L 337.804688 338.25 L 0.304688 338.25 Z M 0.304688 0.75 " clip-rule="nonzero"/></clipPath><clipPath id="50814e0031"><path d="M 169.054688 0.75 C 75.855469 0.75 0.304688 76.300781 0.304688 169.5 C 0.304688 262.699219 75.855469 338.25 169.054688 338.25 C 262.25 338.25 337.804688 262.699219 337.804688 169.5 C 337.804688 76.300781 262.25 0.75 169.054688 0.75 Z M 169.054688 0.75 " clip-rule="nonzero"/></clipPath><clipPath id="4360a40605"><rect x="0" width="338" y="0" height="339"/></clipPath><clipPath id="eed66e0552"><path d="M 11.835938 0.742188 L 110.273438 0.742188 L 110.273438 99.179688 L 11.835938 99.179688 Z M 11.835938 0.742188 " clip-rule="nonzero"/></clipPath><clipPath id="0f73ee51f3"><path d="M 61.054688 0.742188 C 33.871094 0.742188 11.835938 22.777344 11.835938 49.960938 C 11.835938 77.144531 33.871094 99.179688 61.054688 99.179688 C 88.234375 99.179688 110.273438 77.144531 110.273438 49.960938 C 110.273438 22.777344 88.234375 0.742188 61.054688 0.742188 Z M 61.054688 0.742188 " clip-rule="nonzero"/></clipPath><clipPath id="b4d6ad808c"><path d="M 0.835938 0.742188 L 99.273438 0.742188 L 99.273438 99.179688 L 0.835938 99.179688 Z M 0.835938 0.742188 " clip-rule="nonzero"/></clipPath><clipPath id="36b57f98f3"><path d="M 50.054688 0.742188 C 22.871094 0.742188 0.835938 22.777344 0.835938 49.960938 C 0.835938 77.144531 22.871094 99.179688 50.054688 99.179688 C 77.234375 99.179688 99.273438 77.144531 99.273438 49.960938 C 99.273438 22.777344 77.234375 0.742188 50.054688 0.742188 Z M 50.054688 0.742188 " clip-rule="nonzero"/></clipPath><clipPath id="f6f1a4e26e"><rect x="0" width="100" y="0" height="100"/></clipPath><clipPath id="3e07eab18d"><path d="M 0.796875 106.324219 L 121.3125 106.324219 L 121.3125 247.554688 L 0.796875 247.554688 Z M 0.796875 106.324219 " clip-rule="nonzero"/></clipPath><clipPath id="7bc5192b84"><path d="M 40.988281 109.804688 C 47.148438 107.703125 54.191406 106.324219 61.085938 106.324219 C 67.980469 106.324219 74.613281 107.503906 80.726562 109.605469 C 80.855469 109.671875 80.988281 109.671875 81.117188 109.738281 C 104.074219 118.144531 120.984375 140.335938 121.3125 166.113281 L 121.3125 247.507812 L 0.796875 247.507812 L 0.796875 166.171875 C 1.121094 140.203125 17.769531 118.011719 40.988281 109.804688 Z M 40.988281 109.804688 " clip-rule="nonzero"/></clipPath><clipPath id="fa4cea9e61"><path d="M 0.796875 0.324219 L 121.3125 0.324219 L 121.3125 141.554688 L 0.796875 141.554688 Z M 0.796875 0.324219 " clip-rule="nonzero"/></clipPath><clipPath id="dad19dd723"><path d="M 40.988281 3.804688 C 47.148438 1.703125 54.191406 0.324219 61.085938 0.324219 C 67.980469 0.324219 74.613281 1.503906 80.726562 3.605469 C 80.855469 3.671875 80.988281 3.671875 81.117188 3.738281 C 104.074219 12.144531 120.984375 34.335938 121.3125 60.113281 L 121.3125 141.507812 L 0.796875 141.507812 L 0.796875 60.171875 C 1.121094 34.203125 17.769531 12.011719 40.988281 3.804688 Z M 40.988281 3.804688 " clip-rule="nonzero"/></clipPath><clipPath id="210e00159f"><rect x="0" width="122" y="0" height="142"/></clipPath><clipPath id="740cded7d1"><path d="M 12.714844 108.445312 L 111.320312 108.445312 L 111.320312 158.628906 L 12.714844 158.628906 Z M 12.714844 108.445312 " clip-rule="nonzero"/></clipPath><clipPath id="66c7dc0f55"><path d="M 111.152344 158.628906 C 111.152344 131.296875 88.742188 108.445312 61.933594 108.445312 C 35.125 108.445312 12.714844 131.296875 12.714844 158.628906 Z M 111.152344 158.628906 " clip-rule="nonzero"/></clipPath><clipPath id="62d0945c04"><path d="M 0.714844 0.445312 L 99.320312 0.445312 L 99.320312 50.628906 L 0.714844 50.628906 Z M 0.714844 0.445312 " clip-rule="nonzero"/></clipPath><clipPath id="84c808cb63"><path d="M 99.152344 50.628906 C 99.152344 23.296875 76.742188 0.445312 49.933594 0.445312 C 23.125 0.445312 0.714844 23.296875 0.714844 50.628906 Z M 99.152344 50.628906 " clip-rule="nonzero"/></clipPath><clipPath id="4eddaec722"><rect x="0" width="100" y="0" height="51"/></clipPath><clipPath id="fd27e9f9fd"><rect x="0" width="122" y="0" height="248"/></clipPath><clipPath id="566f5d023d"><path d="M 492.761719 712.5 L 613.300781 712.5 L 613.300781 728.070312 L 492.761719 728.070312 Z M 492.761719 712.5 " clip-rule="nonzero"/></clipPath><clipPath id="0008dcdf0f"><path d="M 492.785156 712.5 C 492.785156 720.980469 520.21875 728.070312 553.042969 728.070312 C 585.863281 728.070312 613.300781 720.980469 613.300781 712.5 Z M 492.785156 712.5 " clip-rule="nonzero"/></clipPath><clipPath id="cb6a5e8bad"><path d="M 0.761719 0.5 L 121.300781 0.5 L 121.300781 16.070312 L 0.761719 16.070312 Z M 0.761719 0.5 " clip-rule="nonzero"/></clipPath><clipPath id="982b5979bd"><path d="M 0.785156 0.5 C 0.785156 8.980469 28.21875 16.070312 61.042969 16.070312 C 93.863281 16.070312 121.300781 8.980469 121.300781 0.5 Z M 0.785156 0.5 " clip-rule="nonzero"/></clipPath><clipPath id="71142a14b2"><rect x="0" width="122" y="0" height="17"/></clipPath><clipPath id="9854fa475a"><path d="M 562.5 393.75 L 900 393.75 L 900 731.25 L 562.5 731.25 Z M 562.5 393.75 " clip-rule="nonzero"/></clipPath><clipPath id="7bf238fe46"><path d="M 731.25 393.75 C 638.050781 393.75 562.5 469.300781 562.5 562.5 C 562.5 655.699219 638.050781 731.25 731.25 731.25 C 824.449219 731.25 900 655.699219 900 562.5 C 900 469.300781 824.449219 393.75 731.25 393.75 Z M 731.25 393.75 " clip-rule="nonzero"/></clipPath><clipPath id="947490ade0"><path d="M 0.5 0.75 L 338 0.75 L 338 338.25 L 0.5 338.25 Z M 0.5 0.75 " clip-rule="nonzero"/></clipPath><clipPath id="9ffb1e462d"><path d="M 169.25 0.75 C 76.050781 0.75 0.5 76.300781 0.5 169.5 C 0.5 262.699219 76.050781 338.25 169.25 338.25 C 262.449219 338.25 338 262.699219 338 169.5 C 338 76.300781 262.449219 0.75 169.25 0.75 Z M 169.25 0.75 " clip-rule="nonzero"/></clipPath><clipPath id="3f60426a30"><rect x="0" width="338" y="0" height="339"/></clipPath><clipPath id="0ddee5d7af"><path d="M 12.03125 0.742188 L 110.46875 0.742188 L 110.46875 99.179688 L 12.03125 99.179688 Z M 12.03125 0.742188 " clip-rule="nonzero"/></clipPath><clipPath id="5df9d5420c"><path d="M 61.25 0.742188 C 34.066406 0.742188 12.03125 22.777344 12.03125 49.960938 C 12.03125 77.144531 34.066406 99.179688 61.25 99.179688 C 88.433594 99.179688 110.46875 77.144531 110.46875 49.960938 C 110.46875 22.777344 88.433594 0.742188 61.25 0.742188 Z M 61.25 0.742188 " clip-rule="nonzero"/></clipPath><clipPath id="bb177f275a"><path d="M 0.03125 0.742188 L 98.46875 0.742188 L 98.46875 99.179688 L 0.03125 99.179688 Z M 0.03125 0.742188 " clip-rule="nonzero"/></clipPath><clipPath id="bf5a36cecf"><path d="M 49.25 0.742188 C 22.066406 0.742188 0.03125 22.777344 0.03125 49.960938 C 0.03125 77.144531 22.066406 99.179688 49.25 99.179688 C 76.433594 99.179688 98.46875 77.144531 98.46875 49.960938 C 98.46875 22.777344 76.433594 0.742188 49.25 0.742188 Z M 49.25 0.742188 " clip-rule="nonzero"/></clipPath><clipPath id="e982c5d331"><rect x="0" width="99" y="0" height="100"/></clipPath><clipPath id="46b73c8920"><path d="M 0.992188 106.324219 L 121.507812 106.324219 L 121.507812 247.554688 L 0.992188 247.554688 Z M 0.992188 106.324219 " clip-rule="nonzero"/></clipPath><clipPath id="a49b2795fe"><path d="M 41.1875 109.804688 C 47.34375 107.703125 54.386719 106.324219 61.28125 106.324219 C 68.175781 106.324219 74.808594 107.503906 80.925781 109.605469 C 81.054688 109.671875 81.183594 109.671875 81.3125 109.738281 C 104.273438 118.144531 121.183594 140.335938 121.507812 166.113281 L 121.507812 247.507812 L 0.992188 247.507812 L 0.992188 166.171875 C 1.316406 140.203125 17.96875 118.011719 41.1875 109.804688 Z M 41.1875 109.804688 " clip-rule="nonzero"/></clipPath><clipPath id="1593025ac7"><path d="M 0.992188 0.324219 L 121.507812 0.324219 L 121.507812 141.554688 L 0.992188 141.554688 Z M 0.992188 0.324219 " clip-rule="nonzero"/></clipPath><clipPath id="5a60245a9d"><path d="M 41.1875 3.804688 C 47.34375 1.703125 54.386719 0.324219 61.28125 0.324219 C 68.175781 0.324219 74.808594 1.503906 80.925781 3.605469 C 81.054688 3.671875 81.183594 3.671875 81.3125 3.738281 C 104.273438 12.144531 121.183594 34.335938 121.507812 60.113281 L 121.507812 141.507812 L 0.992188 141.507812 L 0.992188 60.171875 C 1.316406 34.203125 17.96875 12.011719 41.1875 3.804688 Z M 41.1875 3.804688 " clip-rule="nonzero"/></clipPath><clipPath id="ed123ec620"><rect x="0" width="122" y="0" height="142"/></clipPath><clipPath id="e3fa13b480"><path d="M 12.914062 108.445312 L 111.515625 108.445312 L 111.515625 158.628906 L 12.914062 158.628906 Z M 12.914062 108.445312 " clip-rule="nonzero"/></clipPath><clipPath id="30c3f50bad"><path d="M 111.347656 158.628906 C 111.347656 131.296875 88.941406 108.445312 62.132812 108.445312 C 35.320312 108.445312 12.914062 131.296875 12.914062 158.628906 Z M 111.347656 158.628906 " clip-rule="nonzero"/></clipPath><clipPath id="b0e2eebcba"><path d="M 0.914062 0.445312 L 99.441406 0.445312 L 99.441406 50.628906 L 0.914062 50.628906 Z M 0.914062 0.445312 " clip-rule="nonzero"/></clipPath><clipPath id="97489f27a8"><path d="M 99.347656 50.628906 C 99.347656 23.296875 76.941406 0.445312 50.132812 0.445312 C 23.320312 0.445312 0.914062 23.296875 0.914062 50.628906 Z M 99.347656 50.628906 " clip-rule="nonzero"/></clipPath><clipPath id="67cfa2b12c"><rect x="0" width="100" y="0" height="51"/></clipPath><clipPath id="032cbc7972"><rect x="0" width="122" y="0" height="248"/></clipPath><clipPath id="dc9abe4a18"><path d="M 670.957031 712.5 L 791.496094 712.5 L 791.496094 728.070312 L 670.957031 728.070312 Z M 670.957031 712.5 " clip-rule="nonzero"/></clipPath><clipPath id="42fe2f7687"><path d="M 670.980469 712.5 C 670.980469 720.980469 698.417969 728.070312 731.238281 728.070312 C 764.058594 728.070312 791.496094 720.980469 791.496094 712.5 Z M 670.980469 712.5 " clip-rule="nonzero"/></clipPath><clipPath id="f343ecd4ef"><path d="M 0.957031 0.5 L 121.496094 0.5 L 121.496094 16.070312 L 0.957031 16.070312 Z M 0.957031 0.5 " clip-rule="nonzero"/></clipPath><clipPath id="a331d2a49c"><path d="M 0.980469 0.5 C 0.980469 8.980469 28.417969 16.070312 61.238281 16.070312 C 94.058594 16.070312 121.496094 8.980469 121.496094 0.5 Z M 0.980469 0.5 " clip-rule="nonzero"/></clipPath><clipPath id="1846256384"><rect x="0" width="122" y="0" height="17"/></clipPath></defs><g clip-path="url(#4af9f01963)"><g clip-path="url(#ca1a47f6b8)"><g transform="matrix(1, 0, 0, 1, 196, 393)"><g clip-path="url(#c8604b35b1)"><g clip-path="url(#afedc79802)"><g clip-path="url(#3183913270)"><path fill="#d2e0b4" d="M 0.875 0.75 L 338.375 0.75 L 338.375 338.25 L 0.875 338.25 Z M 0.875 0.75 " fill-opacity="1" fill-rule="nonzero"/></g></g></g></g><path stroke-linecap="butt" transform="matrix(0.75, 0, 0, 0.75, 196.875008, 393.749946)" fill="none" stroke-linejoin="miter" d="M 225.000009 0.000071875 C 100.734373 0.000071875 -0.0000107292 100.734456 -0.0000107292 225.000091 C -0.0000107292 349.265727 100.734373 450.000111 225.000009 450.000111 C 349.265644 450.000111 450.000028 349.265727 450.000028 225.000091 C 450.000028 100.734456 349.265644 0.000071875 225.000009 0.000071875 Z M 225.000009 0.000071875 " stroke="#000000" stroke-width="8" stroke-opacity="1" stroke-miterlimit="4"/></g></g><g transform="matrix(1, 0, 0, 1, 305, 465)"><g clip-path="url(#58c1000672)"><g clip-path="url(#90efade2f7)"><g clip-path="url(#568ffe5ded)"><g transform="matrix(1, 0, 0, 1, 11, -0.000000000000113687)"><g clip-path="url(#d8bf248058)"><g clip-path="url(#bcaf177787)"><g clip-path="url(#360eb03e8b)"><path fill="#ed904c" d="M 0.40625 0.742188 L 98.84375 0.742188 L 98.84375 99.179688 L 0.40625 99.179688 Z M 0.40625 0.742188 " fill-opacity="1" fill-rule="nonzero"/></g></g></g></g></g></g><g clip-path="url(#4d9ba009c4)"><g clip-path="url(#346c3ab22b)"><g transform="matrix(1, 0, 0, 1, 0, 106)"><g clip-path="url(#e212cec1cd)"><g clip-path="url(#c4a27f4b53)"><g clip-path="url(#0951c90122)"><path fill="#ed904c" d="M 0.367188 0.324219 L 120.882812 0.324219 L 120.882812 141.554688 L 0.367188 141.554688 Z M 0.367188 0.324219 " fill-opacity="1" fill-rule="nonzero"/></g></g></g></g></g></g><g clip-path="url(#4c844b72b8)"><g clip-path="url(#9a8cff1979)"><g transform="matrix(1, 0, 0, 1, 12, 108)"><g clip-path="url(#9e29622b41)"><g clip-path="url(#efe3c2712d)"><g clip-path="url(#9ded9cb669)"><path fill="#ed904c" d="M 0.289062 0.445312 L 98.695312 0.445312 L 98.695312 50.628906 L 0.289062 50.628906 Z M 0.289062 0.445312 " fill-opacity="1" fill-rule="nonzero"/></g></g></g></g></g></g></g></g><g clip-path="url(#f4e6aba7e7)"><g clip-path="url(#6bbee74581)"><g transform="matrix(1, 0, 0, 1, 305, 712)"><g clip-path="url(#a2969359fd)"><g clip-path="url(#4dc2852315)"><g clip-path="url(#a3a9aec9cd)"><path fill="#ed904c" d="M 120.871094 16.070312 L 0.332031 16.070312 L 0.332031 0.5 L 120.871094 0.5 Z M 120.871094 16.070312 " fill-opacity="1" fill-rule="nonzero"/></g></g></g></g></g></g><g clip-path="url(#ca0794cb05)"><g clip-path="url(#2faf9c4cad)"><g transform="matrix(1, 0, 0, 1, 384, 393)"><g clip-path="url(#4360a40605)"><g clip-path="url(#68475d1b72)"><g clip-path="url(#50814e0031)"><path fill="#d2e0b4" d="M 0.304688 0.75 L 337.804688 0.75 L 337.804688 338.25 L 0.304688 338.25 Z M 0.304688 0.75 " fill-opacity="1" fill-rule="nonzero"/></g></g></g></g><path stroke-linecap="butt" transform="matrix(0.75, 0, 0, 0.75, 384.303273, 393.749946)" fill="none" stroke-linejoin="miter" d="M 225.001906 0.000071875 C 100.73627 0.000071875 0.00188639 100.734456 0.00188639 225.000091 C 0.00188639 349.265727 100.73627 450.000111 225.001906 450.000111 C 349.262333 450.000111 450.001925 349.265727 450.001925 225.000091 C 450.001925 100.734456 349.262333 0.000071875 225.001906 0.000071875 Z M 225.001906 0.000071875 " stroke="#000000" stroke-width="8" stroke-opacity="1" stroke-miterlimit="4"/></g></g><g transform="matrix(1, 0, 0, 1, 492, 465)"><g clip-path="url(#fd27e9f9fd)"><g clip-path="url(#eed66e0552)"><g clip-path="url(#0f73ee51f3)"><g transform="matrix(1, 0, 0, 1, 11, -0.000000000000113687)"><g clip-path="url(#f6f1a4e26e)"><g clip-path="url(#b4d6ad808c)"><g clip-path="url(#36b57f98f3)"><path fill="#ed904c" d="M 0.835938 0.742188 L 99.273438 0.742188 L 99.273438 99.179688 L 0.835938 99.179688 Z M 0.835938 0.742188 " fill-opacity="1" fill-rule="nonzero"/></g></g></g></g></g></g><g clip-path="url(#3e07eab18d)"><g clip-path="url(#7bc5192b84)"><g transform="matrix(1, 0, 0, 1, 0.000000000000056843, 106)"><g clip-path="url(#210e00159f)"><g clip-path="url(#fa4cea9e61)"><g clip-path="url(#dad19dd723)"><path fill="#ed904c" d="M 0.796875 0.324219 L 121.3125 0.324219 L 121.3125 141.554688 L 0.796875 141.554688 Z M 0.796875 0.324219 " fill-opacity="1" fill-rule="nonzero"/></g></g></g></g></g></g><g clip-path="url(#740cded7d1)"><g clip-path="url(#66c7dc0f55)"><g transform="matrix(1, 0, 0, 1, 12, 108)"><g clip-path="url(#4eddaec722)"><g clip-path="url(#62d0945c04)"><g clip-path="url(#84c808cb63)"><path fill="#ed904c" d="M 0.714844 0.445312 L 99.121094 0.445312 L 99.121094 50.628906 L 0.714844 50.628906 Z M 0.714844 0.445312 " fill-opacity="1" fill-rule="nonzero"/></g></g></g></g></g></g></g></g><g clip-path="url(#566f5d023d)"><g clip-path="url(#0008dcdf0f)"><g transform="matrix(1, 0, 0, 1, 492, 712)"><g clip-path="url(#71142a14b2)"><g clip-path="url(#cb6a5e8bad)"><g clip-path="url(#982b5979bd)"><path fill="#ed904c" d="M 121.300781 16.070312 L 0.761719 16.070312 L 0.761719 0.5 L 121.300781 0.5 Z M 121.300781 16.070312 " fill-opacity="1" fill-rule="nonzero"/></g></g></g></g></g></g><g clip-path="url(#9854fa475a)"><g clip-path="url(#7bf238fe46)"><g transform="matrix(1, 0, 0, 1, 562, 393)"><g clip-path="url(#3f60426a30)"><g clip-path="url(#947490ade0)"><g clip-path="url(#9ffb1e462d)"><path fill="#d2e0b4" d="M 0.5 0.75 L 338 0.75 L 338 338.25 L 0.5 338.25 Z M 0.5 0.75 " fill-opacity="1" fill-rule="nonzero"/></g></g></g></g><path stroke-linecap="butt" transform="matrix(0.75, 0, 0, 0.75, 562.499977, 393.749946)" fill="none" stroke-linejoin="miter" d="M 225.000051 0.000071875 C 100.734415 0.000071875 0.00003125 100.734456 0.00003125 225.000091 C 0.00003125 349.265727 100.734415 450.000111 225.000051 450.000111 C 349.265686 450.000111 450.00007 349.265727 450.00007 225.000091 C 450.00007 100.734456 349.265686 0.000071875 225.000051 0.000071875 Z M 225.000051 0.000071875 " stroke="#000000" stroke-width="8" stroke-opacity="1" stroke-miterlimit="4"/></g></g><g transform="matrix(1, 0, 0, 1, 670, 465)"><g clip-path="url(#032cbc7972)"><g clip-path="url(#0ddee5d7af)"><g clip-path="url(#5df9d5420c)"><g transform="matrix(1, 0, 0, 1, 12, -0.000000000000113687)"><g clip-path="url(#e982c5d331)"><g clip-path="url(#bb177f275a)"><g clip-path="url(#bf5a36cecf)"><path fill="#ed904c" d="M 0.03125 0.742188 L 98.46875 0.742188 L 98.46875 99.179688 L 0.03125 99.179688 Z M 0.03125 0.742188 " fill-opacity="1" fill-rule="nonzero"/></g></g></g></g></g></g><g clip-path="url(#46b73c8920)"><g clip-path="url(#a49b2795fe)"><g transform="matrix(1, 0, 0, 1, 0, 106)"><g clip-path="url(#ed123ec620)"><g clip-path="url(#1593025ac7)"><g clip-path="url(#5a60245a9d)"><path fill="#ed904c" d="M 0.992188 0.324219 L 121.507812 0.324219 L 121.507812 141.554688 L 0.992188 141.554688 Z M 0.992188 0.324219 " fill-opacity="1" fill-rule="nonzero"/></g></g></g></g></g></g><g clip-path="url(#e3fa13b480)"><g clip-path="url(#30c3f50bad)"><g transform="matrix(1, 0, 0, 1, 12, 108)"><g clip-path="url(#67cfa2b12c)"><g clip-path="url(#b0e2eebcba)"><g clip-path="url(#97489f27a8)"><path fill="#ed904c" d="M 0.914062 0.445312 L 99.320312 0.445312 L 99.320312 50.628906 L 0.914062 50.628906 Z M 0.914062 0.445312 " fill-opacity="1" fill-rule="nonzero"/></g></g></g></g></g></g></g></g><g clip-path="url(#dc9abe4a18)"><g clip-path="url(#42fe2f7687)"><g transform="matrix(1, 0, 0, 1, 670, 712)"><g clip-path="url(#1846256384)"><g clip-path="url(#f343ecd4ef)"><g clip-path="url(#a331d2a49c)"><path fill="#ed904c" d="M 121.496094 16.070312 L 0.957031 16.070312 L 0.957031 0.5 L 121.496094 0.5 Z M 121.496094 16.070312 " fill-opacity="1" fill-rule="nonzero"/></g></g></g></g></g></g></svg>